<svg width="25" height="24" viewBox="0 0 25 24" fill="#292929" class="text-gray-600 fill-current hover:text-secondary"><path fill-rule="evenodd" clip-rule="evenodd" d="M12.284 0C5.498 0 0 5.507 0 12.303a12.303 12.303 0 008.401 11.674c.616.113.84-.264.84-.592 0-.293-.012-1.066-.016-2.09-3.419.74-4.139-1.65-4.139-1.65-.56-1.423-1.363-1.803-1.363-1.803-1.116-.761.084-.745.084-.745 1.231.088 1.88 1.266 1.88 1.266C6.781 20.245 8.56 19.7 9.26 19.388c.112-.797.432-1.338.78-1.646-2.727-.309-5.594-1.366-5.594-6.08 0-1.345.48-2.443 1.263-3.304-.124-.308-.548-1.562.12-3.256 0 0 1.032-.328 3.379 1.262.98-.273 2.031-.409 3.075-.413a11.74 11.74 0 013.075.413c2.347-1.59 3.375-1.262 3.375-1.262.672 1.694.252 2.948.124 3.256.787.861 1.26 1.959 1.26 3.304 0 4.726-2.872 5.763-5.607 6.072.44.376.832 1.13.832 2.275 0 1.646-.012 2.971-.012 3.376 0 .328.22.713.844.592a12.305 12.305 0 008.393-11.674C24.568 5.507 19.07 0 12.284 0z"></path></svg>