<svg width="28" height="24" viewBox="0 0 28 24" fill="#292929" class="text-gray-600 fill-current hover:text-secondary"><path d="M27.692 0H0v24h27.692V0z"></path><path d="M6.608 8.026a.583.583 0 00-.234-.526L4.637 5.686v-.27h5.393l4.17 7.923 3.664-7.924h5.142v.271L21.52 6.92a.354.354 0 00-.165.361v9.068a.354.354 0 00.165.361l1.45 1.234v.271h-7.295v-.27l1.502-1.265c.148-.128.148-.165.148-.361v-7.33l-4.178 9.196h-.564L7.72 8.99v6.163c-.04.259.059.52.27.707l1.953 2.054v.271h-5.54v-.27l1.954-2.055a.752.752 0 00.251-.707V8.026z" fill="#fff"></path></svg>