<svg width="28" height="22" viewBox="0 0 28 22" fill="#292929" class="text-gray-600 fill-current hover:text-secondary"><path d="M27.024 2.608c-.994.44-2.063.74-3.185.872A5.57 5.57 0 0026.276.41a11.16 11.16 0 01-3.519 1.348A5.54 5.54 0 0018.711 0a5.553 5.553 0 00-5.401 6.82A15.708 15.708 0 011.883 1.017 5.515 5.515 0 001.13 3.81c0 1.925.977 3.625 2.468 4.62a5.506 5.506 0 01-2.512-.695v.07a5.548 5.548 0 004.447 5.445 5.51 5.51 0 01-1.46.198c-.356 0-.708-.035-1.042-.101a5.555 5.555 0 005.176 3.859A11.109 11.109 0 010 19.502 15.66 15.66 0 008.498 22c10.2 0 15.777-8.463 15.777-15.802 0-.238-.009-.48-.018-.718a11.367 11.367 0 002.767-2.872z"></path></svg>