<svg width="147" height="55" viewBox="0 0 147 55" fill="none" xmlns="http://www.w3.org/2000/svg">
<path d="M13.2 18.8509C15.7394 18.8509 18.1028 19.4166 20.2902 20.548L19.6868 23.4143L19.3097 23.4897C18.1028 22.7354 16.984 22.1949 15.9531 21.868C14.9474 21.5411 13.8788 21.3777 12.7474 21.3777C7.29139 21.3777 4.56339 24.7469 4.56339 31.4851C4.56339 34.7286 5.19196 37.1171 6.44911 38.6509C7.73139 40.1594 9.70511 40.9137 12.3702 40.9137C13.0742 40.9137 13.7782 40.8509 14.4822 40.7251C15.2114 40.5994 16.1417 40.3606 17.2731 40.0086L17.3485 37.18L17.3108 33.5594L20.1394 33.3331L20.064 36.7651L20.2148 42.0451C18.5805 42.548 17.1348 42.9126 15.8777 43.1389C14.6205 43.3651 13.4011 43.4783 12.2194 43.4783C8.62396 43.4783 5.92111 42.46 4.11082 40.4234C2.32568 38.3869 1.43311 35.4451 1.43311 31.5983C1.43311 27.4497 2.45139 24.2943 4.48796 22.132C6.52453 19.9446 9.42853 18.8509 13.2 18.8509ZM37.4733 40.8006L37.6996 41.0269L37.4356 43.2143H26.0081L26.1213 37.5571L26.0081 24.4326H37.511L37.6996 24.6589L37.4733 26.8463L32.7213 26.6954L28.799 26.7331L28.7613 32.428L32.495 32.4657L35.7761 32.3526L35.9647 32.6166L35.7384 34.8417L32.2687 34.7286L28.7613 34.7663L28.7236 37.3309L28.7613 40.9137L32.4573 40.9514L37.4733 40.8006ZM49.2003 24.2063C51.9409 24.2063 54.0403 25.0109 55.4986 26.62C56.982 28.2291 57.7237 30.5046 57.7237 33.4463C57.7237 36.6394 56.9317 39.116 55.3477 40.876C53.7889 42.6109 51.5512 43.4783 48.6346 43.4783C45.9192 43.4783 43.8197 42.6611 42.3363 41.0269C40.8529 39.3674 40.1111 37.0166 40.1111 33.9743C40.1111 30.8566 40.9031 28.4554 42.4871 26.7709C44.0711 25.0611 46.3089 24.2063 49.2003 24.2063ZM48.9363 26.5823C46.95 26.5823 45.4666 27.148 44.486 28.2794C43.5306 29.4109 43.0529 31.196 43.0529 33.6349C43.0529 36.2497 43.5306 38.148 44.486 39.3297C45.4414 40.5114 46.8997 41.1023 48.8609 41.1023C50.8723 41.1023 52.3683 40.524 53.3489 39.3674C54.3294 38.2109 54.8197 36.4006 54.8197 33.9366C54.8197 31.3971 54.3294 29.5366 53.3489 28.3549C52.3934 27.1731 50.9226 26.5823 48.9363 26.5823Z" fill="#292929"/>
<path d="M96.0017 41.1023L95.8131 43.2143H85.8188L85.932 37.5571L85.8188 24.4326H88.6474L88.5343 37.3309L88.6097 40.8383H95.8508L96.0017 41.1023ZM111.576 40.8006L111.802 41.0269L111.538 43.2143H100.111L100.224 37.5571L100.111 24.4326H111.614L111.802 24.6589L111.576 26.8463L106.824 26.6954L102.902 26.7331L102.864 32.428L106.598 32.4657L109.879 32.3526L110.068 32.6166L109.841 34.8417L106.372 34.7286L102.864 34.7663L102.826 37.3309L102.864 40.9137L106.56 40.9514L111.576 40.8006ZM125.137 35.6337C126.67 37.972 128.368 40.2726 130.228 42.5354L130.19 42.9126C129.134 43.2394 128.267 43.428 127.588 43.4783L127.098 43.1766C125.187 40.2851 123.741 38.0097 122.761 36.3503L119.216 36.388V37.3309L119.291 43.2143H116.5L116.613 37.5571L116.5 24.4326L122.912 24.3949C124.898 24.3949 126.419 24.86 127.475 25.7903C128.556 26.7206 129.097 28.0657 129.097 29.8257C129.097 31.108 128.745 32.252 128.041 33.2577C127.362 34.2634 126.394 35.0554 125.137 35.6337ZM119.253 34.0497L122.798 34.1629C125.036 33.5343 126.155 32.164 126.155 30.052C126.155 28.9457 125.828 28.116 125.174 27.5629C124.521 27.0097 123.528 26.708 122.195 26.6577L119.291 26.6954L119.253 34.0497ZM145.69 24.6589L145.502 27.0349L141.994 26.7709H140.109L139.995 37.3309L140.109 43.2143H137.28L137.393 37.5571L137.318 26.7709H135.432L131.849 27.0349L131.623 26.7709L131.849 24.4326H145.539L145.69 24.6589Z" fill="#292929"/>
<path d="M78.6919 33.7857H63.7633V36.9286H78.6919V33.7857Z" fill="#E73E33"/>
<path fill-rule="evenodd" clip-rule="evenodd" d="M69.6978 17.2857L59.7142 43.2144H63.082L71.2759 21.9338L79.4694 43.2144H82.8378L72.8539 17.2857H69.6978Z" fill="#E73E33"/>
<path d="M71.5 13.3571C72.8018 13.3571 73.8571 12.3018 73.8571 11C73.8571 9.69818 72.8018 8.64285 71.5 8.64285C70.1982 8.64285 69.1428 9.69818 69.1428 11C69.1428 12.3018 70.1982 13.3571 71.5 13.3571Z" fill="#E73E33"/>
<path fill-rule="evenodd" clip-rule="evenodd" d="M80.1429 11H82.5C82.5 4.92486 77.5751 0 71.5 0C65.4249 0 60.5 4.92486 60.5 11H62.8571C62.8571 6.22668 66.7267 2.35714 71.5 2.35714C76.2733 2.35714 80.1429 6.22668 80.1429 11Z" fill="#E73E33"/>
</svg>
