<svg width="161" height="50" viewBox="0 0 161 50" fill="none" xmlns="http://www.w3.org/2000/svg">
<path d="M59.8984 15.8066H63.2559V18.0566C64.1816 16.3574 65.4121 15.5078 66.9473 15.5078C68.623 15.5078 69.7598 16.3574 70.3574 18.0566C71.248 16.3574 72.5137 15.5078 74.1543 15.5078C75.4316 15.5078 76.4043 15.8477 77.0723 16.5273C77.752 17.1953 78.0918 18.1855 78.0918 19.498V34H74.7168V22.0293C74.7168 20.6582 74.5879 19.7383 74.3301 19.2695C74.084 18.7891 73.6035 18.5488 72.8887 18.5488C72.0801 18.5488 71.5293 18.7949 71.2363 19.2871C70.9551 19.7676 70.8145 20.6816 70.8145 22.0293V34H67.334V22.0293C67.334 21.3848 67.2988 20.8398 67.2285 20.3945C67.1699 19.9492 67.0645 19.5918 66.9121 19.3223C66.7598 19.0527 66.5605 18.8594 66.3145 18.7422C66.0684 18.6133 65.7637 18.5488 65.4004 18.5488C64.627 18.5488 64.0762 18.8125 63.748 19.3398C63.4199 19.8672 63.2559 20.7637 63.2559 22.0293V34H59.8984V15.8066ZM92.2949 15.8066V34H88.9375V31.6621C88.457 32.6582 87.9766 33.3438 87.4961 33.7188C87.0156 34.0938 86.3828 34.2812 85.5977 34.2812C84.0859 34.2812 82.9785 33.5078 82.2754 31.9609C81.5723 30.4141 81.2207 27.9883 81.2207 24.6836C81.2207 21.5312 81.5723 19.2168 82.2754 17.7402C82.9785 16.252 84.0859 15.5078 85.5977 15.5078C86.9805 15.5078 88.0938 16.293 88.9375 17.8633V15.8066H92.2949ZM84.7012 24.8242C84.7012 27.2148 84.8594 28.8848 85.1758 29.834C85.5039 30.7832 86.0781 31.2578 86.8984 31.2578C87.6484 31.2578 88.1934 30.7656 88.5332 29.7812C88.873 28.7266 89.043 27.1035 89.043 24.9121C89.043 22.709 88.873 21.0801 88.5332 20.0254C88.1934 19.041 87.6484 18.5488 86.8984 18.5488C86.1016 18.5488 85.5332 19.0176 85.1934 19.9551C84.8652 20.8223 84.7012 22.4453 84.7012 24.8242ZM96.1094 41.4531V15.8066H99.4668V18.1621C99.9355 17.166 100.416 16.4746 100.908 16.0879C101.4 15.7012 102.045 15.5078 102.842 15.5078C104.342 15.5078 105.438 16.2871 106.129 17.8457C106.832 19.3926 107.184 21.8184 107.184 25.123C107.184 28.3574 106.826 30.6836 106.111 32.1016C105.408 33.5547 104.277 34.2812 102.719 34.2812C101.969 34.2812 101.354 34.1113 100.873 33.7715C100.639 33.6074 100.404 33.373 100.17 33.0684C99.9355 32.7637 99.7012 32.3945 99.4668 31.9609V41.4531H96.1094ZM103.703 25C103.703 22.5273 103.539 20.8516 103.211 19.9727C102.895 19.0234 102.326 18.5488 101.506 18.5488C100.732 18.5488 100.182 19.041 99.8535 20.0254C99.5254 20.9395 99.3613 22.5684 99.3613 24.9121C99.3613 27.2559 99.5254 28.8848 99.8535 29.7988C100.193 30.7715 100.744 31.2578 101.506 31.2578C102.303 31.2578 102.871 30.7891 103.211 29.8516C103.539 28.9844 103.703 27.3672 103.703 25ZM121.703 34H118.328V9.0918C118.328 8.50586 118.117 8.00781 117.695 7.59766C117.285 7.17578 116.787 6.96484 116.201 6.96484C115.615 6.96484 115.111 7.17578 114.689 7.59766C114.279 8.00781 114.074 8.50586 114.074 9.0918V15.8066H116.623V18.4785H114.074V34H110.717V18.4785H109.029V15.8066H110.717V9.0918C110.717 7.60352 111.256 6.34961 112.334 5.33008C113.4 4.29883 114.689 3.7832 116.201 3.7832C117.713 3.7832 119.002 4.29883 120.068 5.33008C121.158 6.34961 121.703 7.60352 121.703 9.0918V34ZM136.24 25.0527C136.24 31.2051 134.336 34.2812 130.527 34.2812C126.719 34.2812 124.814 31.1582 124.814 24.9121C124.814 18.6426 126.713 15.5078 130.51 15.5078C131.494 15.5078 132.344 15.6953 133.059 16.0703C133.785 16.4453 134.383 17.0254 134.852 17.8105C135.32 18.5957 135.666 19.5859 135.889 20.7812C136.123 21.9766 136.24 23.4004 136.24 25.0527ZM132.76 24.9648C132.76 22.5742 132.602 20.9102 132.285 19.9727C131.969 19.0234 131.406 18.5488 130.598 18.5488C129.801 18.5488 129.232 19.0176 128.893 19.9551C128.576 20.8926 128.418 22.5273 128.418 24.8594C128.418 27.1914 128.576 28.8203 128.893 29.7461C129.232 30.6836 129.801 31.1523 130.598 31.1523C131.395 31.1523 131.951 30.6895 132.268 29.7637C132.596 28.8965 132.76 27.2969 132.76 24.9648ZM137.506 15.8066H141.057L142.076 21.6602C142.275 22.832 142.451 23.9629 142.604 25.0527C142.768 26.1426 142.896 27.2031 142.99 28.2344L143.043 28.8672L143.113 28.1992C143.207 27.3555 143.301 26.582 143.395 25.8789C143.5 25.1641 143.611 24.5078 143.729 23.9102L144.01 22.5215L145.258 15.8066H147.701L148.879 22.5215L149.266 24.6309C149.348 25.0293 149.424 25.5273 149.494 26.125C149.564 26.7109 149.635 27.4082 149.705 28.2168L149.775 28.8672C149.986 26.6875 150.285 24.5723 150.672 22.5215L151.92 15.8066H155.225L150.953 34H148.633L147.244 27.0566C147.08 26.2129 146.939 25.3516 146.822 24.4727C146.705 23.582 146.605 22.6387 146.523 21.6426C146.512 21.5254 146.5 21.3848 146.488 21.2207C146.477 21.0566 146.459 20.8633 146.436 20.6406C146.365 21.707 146.266 22.7441 146.137 23.752C146.008 24.748 145.85 25.7441 145.662 26.7402L144.256 34H141.936L137.506 15.8066Z" fill="#1A234B"/>
<path fill-rule="evenodd" clip-rule="evenodd" d="M47.3129 36.2874C48.1094 34.716 48.7447 33.0491 49.1973 31.3084C48.5368 32.4174 47.811 33.4904 46.7814 34.003C45.6752 34.5537 44.5784 33.9178 43.7084 33.0235C42.4541 31.7345 41.4735 29.9289 40.5866 28.2233C40.0874 27.2649 39.6237 26.2772 39.16 25.2895L39.1599 25.2894L39.1599 25.2894L39.1599 25.2893C38.7771 24.4741 38.3944 23.6589 37.9917 22.8602C37.1949 21.2788 36.1768 19.6657 34.8474 18.8105C33.745 18.1014 32.6106 18.4425 31.6413 19.3271C30.6813 20.2018 29.9163 21.4469 29.2432 22.6775C28.5814 23.8885 28.002 25.1726 27.4452 26.4665C27.064 27.3533 26.6989 28.2528 26.3337 29.1526L26.3337 29.1526L26.3337 29.1526L26.3337 29.1526L26.3337 29.1527C25.6624 30.8067 24.9907 32.4615 24.2184 34.0396C23.5284 35.448 22.5028 37.5338 21.0479 37.5947C20.3785 37.6215 19.7879 37.0976 19.3342 36.5104C18.513 35.4455 17.9674 34.042 17.4611 32.7092C16.8764 31.1679 16.3844 29.57 15.8925 27.9725C15.1589 25.5899 14.4255 23.208 13.385 21.0157C12.6519 19.4708 11.5213 17.4386 9.92764 17.6263C9.32391 17.6969 8.7633 18.1063 8.27582 18.5449C7.64021 19.1175 7.07773 19.8217 6.534 20.5308C6.10916 21.0829 5.6957 21.6488 5.28239 22.2144L5.28229 22.2146C5.06816 22.5076 4.85406 22.8007 4.63844 23.0917C4.16251 23.7329 3.66827 24.3461 3.17346 24.9599L3.17337 24.96L3.17331 24.9601L3.17325 24.9602C2.92544 25.2676 2.6775 25.5751 2.43164 25.8865C1.65735 26.8665 0.975968 27.9525 0.330948 29.078C0.432129 29.6947 0.555879 30.3038 0.701322 30.9045C0.809919 30.7263 0.919761 30.5492 1.03106 30.3736C1.59507 29.4847 2.22804 28.6973 2.86359 27.9067L2.86361 27.9067C3.09218 27.6224 3.32108 27.3376 3.54723 27.0476C4.0224 26.4383 4.48159 25.8058 4.94096 25.173C5.71052 24.1131 6.48058 23.0524 7.3271 22.0987C8.25144 21.0583 9.41953 20.0203 10.7057 20.3882C11.3751 20.5783 11.9488 21.1484 12.4176 21.7698C13.1675 22.7615 13.7338 23.9871 14.2362 25.203C15.0027 27.0544 15.6031 29.0025 16.2035 30.9502C16.8499 33.0476 17.4963 35.1448 18.3499 37.1207C18.9892 38.6022 20.2098 41.0681 21.7716 40.0301C22.4203 39.5988 22.9172 38.8118 23.3428 38.0686C23.9297 37.0403 24.4247 35.9243 24.9028 34.8083C25.2823 33.9217 25.6487 33.0256 26.0152 32.1295L26.0152 32.1294L26.0152 32.1293L26.0153 32.1292L26.0153 32.1292L26.0153 32.1291C26.7294 30.3827 27.4436 28.6362 28.2551 26.9599C28.8214 25.7878 29.442 24.6475 30.162 23.6217C30.9438 22.5081 31.9207 21.4092 33.1056 21.1533C34.3037 20.895 35.3949 21.6967 36.2705 22.6835C37.3992 23.9579 38.2092 25.5832 38.9854 27.2206C39.0824 27.4256 39.1793 27.6307 39.2761 27.8359L39.2761 27.836C40.0735 29.526 40.8712 31.2166 41.7941 32.8005C42.6528 34.2723 43.6821 36.0242 45.0602 36.7041C45.8644 37.1005 46.6393 36.8464 47.3129 36.2874ZM47.8276 32.658C48.448 31.9525 48.9662 31.0715 49.4606 30.1898C49.6844 29.1295 49.8411 28.0445 49.9259 26.9394C49.8487 27.0725 49.7711 27.2052 49.6932 27.3376C49.6316 27.4423 49.5701 27.5479 49.5082 27.6539C48.76 28.9371 47.9746 30.2839 46.7814 30.878C45.6752 31.4287 44.5784 30.7928 43.7084 29.8985C42.4541 28.6095 41.4735 26.8039 40.5866 25.0983C40.0874 24.1398 39.6237 23.1521 39.1599 22.1644L39.1599 22.1644L39.1599 22.1643C38.7771 21.3491 38.3944 20.5339 37.9917 19.7352C37.1949 18.1538 36.1768 16.5407 34.8474 15.6855C33.745 14.9764 32.6106 15.3175 31.6413 16.2021C30.6813 17.0768 29.9163 18.3219 29.2432 19.5525C28.5814 20.7635 28.002 22.0476 27.4452 23.3415C27.064 24.2283 26.6989 25.1278 26.3337 26.0276L26.3337 26.0276L26.3337 26.0276L26.3337 26.0277C25.6624 27.6817 24.9907 29.3365 24.2184 30.9146C23.5284 32.323 22.5028 34.4088 21.0479 34.4697C20.3785 34.4965 19.7879 33.9726 19.3342 33.3854C18.513 32.3205 17.9674 30.917 17.4611 29.5842C16.8764 28.0429 16.3844 26.445 15.8925 24.8475C15.1589 22.4649 14.4255 20.083 13.385 17.8907C12.6519 16.3458 11.5213 14.3136 9.92764 14.5013C9.32391 14.5719 8.7633 14.9813 8.27582 15.4199C7.64021 15.9925 7.07773 16.6967 6.534 17.4058C6.10916 17.9579 5.6957 18.5238 5.28239 19.0894L5.28229 19.0896C5.06816 19.3826 4.85406 19.6757 4.63844 19.9667C4.16251 20.6079 3.66827 21.2211 3.17346 21.8349L3.17337 21.835L3.17331 21.8351C2.92548 22.1425 2.67752 22.4501 2.43164 22.7615C1.54087 23.8889 0.773061 25.1567 0.0421171 26.4634C0.0825426 27.1637 0.1518 27.8564 0.248719 28.5401C0.503012 28.1034 0.762806 27.6719 1.03106 27.2486C1.59507 26.3597 2.22804 25.5723 2.86359 24.7817L2.86361 24.7817C3.09218 24.4974 3.32108 24.2126 3.54723 23.9226C4.0224 23.3133 4.48159 22.6808 4.94096 22.048C5.71052 20.9881 6.48058 19.9274 7.3271 18.9737C8.25144 17.9333 9.41953 16.8953 10.7057 17.2632C11.3751 17.4533 11.9488 18.0234 12.4176 18.6448C13.1675 19.6365 13.7338 20.8621 14.2362 22.078C15.0027 23.9294 15.6031 25.8775 16.2035 27.8252C16.8499 29.9226 17.4963 32.0198 18.3499 33.9957C18.9892 35.4772 20.2098 37.9431 21.7716 36.9051C22.4203 36.4738 22.9172 35.6868 23.3428 34.9436C23.9297 33.9153 24.4247 32.7993 24.9028 31.6833C25.2823 30.7969 25.6487 29.9008 26.015 29.0048L26.0151 29.0046L26.0152 29.0044L26.0153 29.0042L26.0153 29.0041L26.0153 29.0041L26.0153 29.0041C26.7294 27.2577 27.4436 25.5112 28.2551 23.8349C28.8214 22.6628 29.442 21.5225 30.162 20.4967C30.9438 19.3831 31.9207 18.2842 33.1056 18.0283C34.3037 17.77 35.3949 18.5717 36.2705 19.5585C37.3992 20.8329 38.2092 22.4582 38.9854 24.0956C39.0824 24.3006 39.1793 24.5057 39.2761 24.7109L39.2761 24.711C40.0735 26.401 40.8712 28.0916 41.7941 29.6755C42.6528 31.1473 43.6821 32.8992 45.0602 33.5791C46.0783 34.081 47.0495 33.5401 47.8276 32.658ZM0.0133073 25.8235C0.34247 25.2471 0.679499 24.6783 1.03106 24.1236C1.59507 23.2347 2.22804 22.4473 2.86359 21.6567L2.86361 21.6567C3.09218 21.3724 3.32108 21.0876 3.54723 20.7976C4.0224 20.1883 4.48159 19.5558 4.94096 18.923C5.71052 17.8631 6.48058 16.8024 7.3271 15.8487C8.25144 14.8083 9.41953 13.7703 10.7057 14.1382C11.3751 14.3283 11.9488 14.8984 12.4176 15.5198C13.1675 16.5115 13.7338 17.7371 14.2362 18.953C15.0027 20.8044 15.6031 22.7524 16.2035 24.7002L16.2035 24.7002C16.8499 26.7976 17.4963 28.8948 18.3499 30.8707C18.9892 32.3522 20.2098 34.8181 21.7716 33.7801C22.4203 33.3488 22.9172 32.5618 23.3428 31.8186C23.9297 30.7903 24.4247 29.6743 24.9028 28.5583C25.2823 27.6718 25.6487 26.7757 26.0151 25.8796L26.0152 25.8794L26.0153 25.8792L26.0153 25.8791L26.0153 25.8791C26.7294 24.1327 27.4436 22.3862 28.2551 20.7099C28.8214 19.5378 29.442 18.3975 30.162 17.3717C30.9438 16.2581 31.9207 15.1592 33.1056 14.9033C34.3037 14.645 35.3949 15.4467 36.2705 16.4335C37.3992 17.7079 38.2092 19.3332 38.9854 20.9706C39.0824 21.1756 39.1793 21.3807 39.2761 21.5859L39.2761 21.586C40.0735 23.276 40.8712 24.9666 41.7941 26.5505C42.6528 28.0223 43.6821 29.7742 45.0602 30.4541C46.0783 30.956 47.0495 30.4151 47.8276 29.533C48.533 28.7308 49.1062 27.7018 49.6627 26.7029L49.6635 26.7013C49.7674 26.5148 49.8707 26.3294 49.9742 26.1467C49.9913 25.7666 50 25.3843 50 25C50 24.5775 49.9895 24.1575 49.9688 23.7402C49.8775 23.8982 49.7856 24.0556 49.6932 24.2126C49.6316 24.3173 49.5701 24.4229 49.5082 24.5289C48.76 25.8121 47.9746 27.1589 46.7814 27.753C45.6752 28.3037 44.5784 27.6678 43.7084 26.7735C42.4541 25.4845 41.4735 23.6789 40.5866 21.9733C40.0874 21.0148 39.6236 20.0271 39.1599 19.0394L39.1599 19.0393C38.7771 18.2241 38.3944 17.4089 37.9917 16.6102C37.1949 15.0288 36.1768 13.4157 34.8474 12.5605C33.745 11.8514 32.6106 12.1925 31.6413 13.0771C30.6813 13.9518 29.9163 15.1969 29.2432 16.4275C28.5814 17.6385 28.002 18.9226 27.4452 20.2165C27.064 21.1033 26.6989 22.0028 26.3337 22.9026L26.3337 22.9026L26.3337 22.9027C25.6624 24.5567 24.9907 26.2115 24.2184 27.7896C23.5284 29.198 22.5028 31.2838 21.0479 31.3447C20.3785 31.3715 19.7879 30.8476 19.3342 30.2604C18.513 29.1955 17.9674 27.792 17.4611 26.4592C16.8764 24.9179 16.3844 23.32 15.8925 21.7225C15.1589 19.3399 14.4255 16.958 13.385 14.7657C12.6519 13.2208 11.5213 11.1886 9.92764 11.3763C9.32391 11.4469 8.7633 11.8563 8.27582 12.2949C7.64021 12.8675 7.07773 13.5717 6.534 14.2808C6.10916 14.8329 5.6957 15.3988 5.28239 15.9644L5.28229 15.9646C5.06816 16.2576 4.85406 16.5507 4.63844 16.8417C4.16251 17.4829 3.66827 18.0961 3.17346 18.7099L3.17337 18.71C2.92552 19.0175 2.67754 19.3251 2.43164 19.6365C1.5465 20.7567 0.782771 22.0157 0.0559808 23.3136C0.018858 23.8709 0 24.4333 0 25C0 25.2756 0.00445849 25.5501 0.0133073 25.8235ZM49.6951 21.0843C49.7996 21.7484 49.8779 22.4212 49.929 23.1016C49.8403 23.2589 49.7517 23.418 49.6627 23.5779C49.1062 24.5768 48.533 25.6058 47.8276 26.408C47.0495 27.2901 46.0783 27.831 45.0602 27.3291C43.6821 26.6492 42.6528 24.8973 41.7941 23.4255C40.8712 21.8416 40.0735 20.151 39.2761 18.461L39.2761 18.4609C39.1793 18.2557 39.0824 18.0506 38.9854 17.8456C38.2092 16.2082 37.3992 14.5829 36.2705 13.3085C35.3949 12.3217 34.3037 11.52 33.1056 11.7783C31.9207 12.0342 30.9438 13.1331 30.162 14.2467C29.442 15.2725 28.8214 16.4128 28.2551 17.5849C27.4436 19.2612 26.7294 21.0077 26.0153 22.7541L26.0153 22.7542L26.0152 22.7544C25.6488 23.6506 25.2823 24.5467 24.9028 25.4333C24.4247 26.5493 23.9297 27.6653 23.3428 28.6936C22.9172 29.4368 22.4203 30.2238 21.7716 30.6551C20.2098 31.6931 18.9892 29.2272 18.3499 27.7457C17.4963 25.7698 16.8499 23.6726 16.2035 21.5752L16.2035 21.5752C15.6031 19.6274 15.0027 17.6794 14.2362 15.828C13.7338 14.6121 13.1675 13.3865 12.4176 12.3948C11.9488 11.7734 11.3751 11.2033 10.7057 11.0132C9.41953 10.6453 8.25144 11.6833 7.3271 12.7237C6.48058 13.6774 5.71052 14.7381 4.94096 15.798L4.94092 15.7981C4.48156 16.4308 4.02238 17.0633 3.54723 17.6726C3.32108 17.9626 3.09218 18.2474 2.86361 18.5317L2.86359 18.5317C2.22804 19.3223 1.59507 20.1097 1.03106 20.9986C0.718325 21.4921 0.41709 21.9967 0.122662 22.5078C0.239285 21.3295 0.437728 20.1751 0.712231 19.0506C1.2448 18.1587 1.80809 17.3007 2.43164 16.5115C2.67757 16.2001 2.92559 15.8924 3.17348 15.5849C3.66828 14.971 4.16251 14.3579 4.63844 13.7167C4.85406 13.4257 5.06815 13.1326 5.28228 12.8396C5.69563 12.2739 6.10912 11.7079 6.534 11.1558C7.07773 10.4467 7.64021 9.7425 8.27582 9.16989C8.7633 8.73129 9.32391 8.32193 9.92764 8.25127C11.5213 8.06365 12.6519 10.0958 13.385 11.6407C14.4255 13.833 15.1589 16.2149 15.8925 18.5975C16.3844 20.195 16.8764 21.7929 17.4611 23.3342C17.9674 24.667 18.513 26.0705 19.3342 27.1354C19.7879 27.7226 20.3785 28.2465 21.0479 28.2197C22.5028 28.1588 23.5284 26.073 24.2184 24.6646C24.9907 23.0864 25.6624 21.4316 26.3337 19.7776C26.6989 18.8779 27.064 17.9783 27.4452 17.0915C28.002 15.7976 28.5814 14.5135 29.2432 13.3025C29.9163 12.0719 30.6813 10.8268 31.6413 9.95205C32.6106 9.06755 33.745 8.72642 34.8474 9.43548C36.1768 10.2907 37.1949 11.9038 37.9917 13.4852C38.3944 14.2839 38.7771 15.0991 39.1599 15.9143C39.6236 16.902 40.0874 17.8898 40.5866 18.8483C41.4735 20.5539 42.4541 22.3595 43.7084 23.6485C44.5784 24.5428 45.6752 25.1787 46.7814 24.628C47.9746 24.0339 48.76 22.6871 49.5082 21.4039C49.5701 21.2979 49.6316 21.1923 49.6932 21.0876C49.6938 21.0865 49.6945 21.0854 49.6951 21.0843ZM49.606 20.5547C49.0672 21.5214 48.5091 22.5081 47.8276 23.283C47.0495 24.1651 46.0783 24.706 45.0602 24.2041C43.6821 23.5242 42.6528 21.7723 41.7941 20.3005C40.8712 18.7165 40.0735 17.0259 39.2761 15.3359C39.1793 15.1307 39.0824 14.9256 38.9854 14.7206C38.2092 13.0832 37.3992 11.4579 36.2705 10.1835C35.3949 9.19669 34.3037 8.39503 33.1056 8.65332C31.9207 8.90917 30.9438 10.0081 30.162 11.1217C29.442 12.1475 28.8214 13.2878 28.2551 14.4599C27.4436 16.1362 26.7294 17.8827 26.0153 19.6292C25.6488 20.5254 25.2824 21.4216 24.9028 22.3083C24.4247 23.4243 23.9297 24.5403 23.3428 25.5686C22.9172 26.3118 22.4203 27.0988 21.7716 27.5301C20.2098 28.5681 18.9892 26.1022 18.3499 24.6207C17.4963 22.6448 16.8499 20.5476 16.2035 18.4502C15.6031 16.5025 15.0027 14.5545 14.2362 12.703C13.7338 11.4871 13.1675 10.2615 12.4176 9.26979C11.9488 8.64845 11.3751 8.07826 10.7057 7.88821C9.41953 7.52027 8.25144 8.55829 7.3271 9.59874C6.48058 10.5524 5.71052 11.6131 4.94096 12.673C4.48159 13.3058 4.0224 13.9383 3.54723 14.5476C3.32108 14.8376 3.09217 15.1224 2.8636 15.4067C2.22805 16.1973 1.59507 16.9847 1.03106 17.8736C1.03063 17.8743 1.03021 17.875 1.02978 17.8756C4.09725 7.53939 13.6682 0 25 0C37.29 0 47.5087 8.86825 49.606 20.5547ZM46.9012 37.0651C46.8618 37.0869 46.8218 37.1079 46.7814 37.128C45.6752 37.6787 44.5784 37.0428 43.7084 36.1485C42.4541 34.8595 41.4735 33.0539 40.5866 31.3483C40.0874 30.3899 39.6237 29.4022 39.16 28.4146L39.16 28.4145L39.1599 28.4144L39.1599 28.4144L39.1599 28.4143C38.7771 27.5991 38.3944 26.7839 37.9917 25.9852C37.1949 24.4038 36.1768 22.7907 34.8474 21.9355C33.745 21.2264 32.6106 21.5675 31.6413 22.4521C30.6813 23.3268 29.9163 24.5719 29.2432 25.8025C28.5814 27.0135 28.002 28.2976 27.4452 29.5915C27.064 30.4783 26.6989 31.3779 26.3337 32.2776C25.6624 33.9316 24.9907 35.5864 24.2184 37.1646C23.5284 38.573 22.5028 40.6588 21.0479 40.7197C20.3785 40.7465 19.7879 40.2226 19.3342 39.6354C18.513 38.5705 17.9674 37.167 17.4611 35.8342C16.8764 34.2929 16.3844 32.695 15.8925 31.0975C15.1589 28.7149 14.4255 26.333 13.385 24.1407C12.6519 22.5958 11.5213 20.5636 9.92764 20.7513C9.32391 20.8219 8.7633 21.2313 8.27582 21.6699C7.64021 22.2425 7.07773 22.9467 6.534 23.6558C6.10916 24.2079 5.6957 24.7738 5.28239 25.3394L5.28229 25.3396C5.06816 25.6326 4.85406 25.9257 4.63844 26.2167C4.16251 26.8579 3.66827 27.4711 3.17346 28.0849L3.17337 28.085L3.17331 28.0851L3.17325 28.0852L3.17319 28.0852C2.9254 28.3926 2.67748 28.7002 2.43164 29.0115C1.84976 29.7479 1.32035 30.5443 0.819416 31.3723C3.63698 42.0929 13.3951 50 25 50C34.4319 50 42.6439 44.7768 46.9012 37.0651Z" fill="#1A234B"/>
</svg>
